<svg version="1.2" xmlns="http://www.w3.org/2000/svg" viewBox="0 0 512 512" width="512" height="512">
	<title>appicon</title>
	<style>
		.s0 { fill: #181c19 } 
		.s1 { fill: #eaeaea } 
		.s2 { fill: #e8e8e8 } 
		.s3 { fill: #1fcb50 } 
		.s4 { fill: #f6f6f6 } 
		.s5 { fill: #25d255 } 
		.s6 { fill: #1c201c } 
		.s7 { fill: #171917 } 
		.s8 { fill: #dedede } 
		.s9 { fill: #1e1e19 } 
		.s10 { fill: #171613 } 
		.s11 { fill: #0b0b09 } 
		.s12 { fill: #0e0e0c } 
		.s13 { fill: #1b1a18 } 
		.s14 { fill: #141410 } 
		.s15 { fill: #16c548 } 
		.s16 { fill: #0c0b0a } 
		.s17 { fill: #f6ea08 } 
		.s18 { fill: #181818 } 
		.s19 { fill: #fcef0d } 
		.s20 { fill: #bff124 } 
		.s21 { fill: #f7ea07 } 
		.s22 { fill: #faef17 } 
		.s23 { fill: #f5e805 } 
		.s24 { fill: #f8ec09 } 
		.s25 { fill: #181515 } 
		.s26 { fill: #20201d } 
		.s27 { fill: #fbee0f } 
		.s28 { fill: #fdf112 } 
		.s29 { fill: #30302f } 
		.s30 { fill: #2cca59 } 
		.s31 { fill: #030b06 } 
		.s32 { fill: #dfdfdf } 
		.s33 { fill: #f3e718 } 
		.s34 { fill: #1c1c1c } 
		.s35 { fill: #2b2b2b } 
		.s36 { fill: #3d3d3d } 
		.s37 { fill: #c2d56b } 
		.s38 { fill: #f16573 } 
		.s39 { fill: #c2d862 } 
		.s40 { fill: #5e5e5e } 
		.s41 { fill: #232d29 } 
		.s42 { fill: #ecebda } 
		.s43 { fill: #ef7b86 } 
		.s44 { fill: #c2c2c2 } 
		.s45 { fill: #0e2819 } 
		.s46 { fill: #15b144 } 
		.s47 { fill: #818896 } 
		.s48 { fill: #2ab655 } 
		.s49 { fill: #272727 } 
		.s50 { fill: #242424 } 
		.s51 { fill: #18ab45 } 
		.s52 { fill: #0a1c11 } 
		.s53 { fill: #b7b7b7 } 
		.s54 { fill: #584142 } 
	</style>
	<path class="s0" d="m131.6 111.5c3.5 1.8 5 4 6.4 7.5 0.9 3.1 1 6.1 1.1 9.3-0.2 4.3-0.2 4.3 1.2 7.8q2.1 0.1 4.3 0.1c1.3 0 1.3 0 2.7 0q1.4 0 2.9 0 1.5 0 3 0 4.8 0 9.6 0 3.3-0.1 6.5-0.1 7.9 0 15.9 0 0.1-1.6 0.1-3.2 0.1-2.1 0.2-4.1 0-1.1 0.1-2.1c0.2-5 1.3-8.5 4.3-12.6 4.2-3.7 8.9-3.5 14.2-3.5 3.9 0.5 5.8 1.5 8.9 3.9 3.2 4.1 3.2 7.9 3.3 12.8-0.3 4.8-0.3 4.8 1.2 8.8q2.1 0.1 4.2 0.1 1.4 0 2.7 0 1.5 0 3 0 1.5 0 3 0 3.1 0 6.3 0 4.8 0 9.7 0 3.1 0 6.1 0 1.5 0 3 0 1.3 0 2.7 0c1.2 0 1.2 0 2.4 0 1.8 0.1 1.8 0.1 2.7-1q0.2-5 0.3-10c0.2-4.8 0.9-7.8 4.2-11.6 4.2-3.3 8-3.2 13.2-3 4.1 0.5 7.3 1.7 10.1 4.8 2.5 4.7 3.1 8.7 3.3 13.9q0.1 1 0.1 2 0.1 2.4 0.2 4.8c0.9 0 0.9 0 1.9 0q4.4 0.1 8.7 0.2c1.5 0 1.5 0 3.1 0.1 8.4 0.2 16.2 1.9 22.5 7.9 5.5 6.1 6.6 11.9 6.5 19.9q0 1.4 0 2.9 0 3.2 0 6.4-0.1 5 0 10 0 10.6-0.1 21.2 0 12.3 0 24.6 0 4.9-0.1 9.9 0 3 0 6 0 1.4 0 2.8c0 5 0 5 2.6 9 2.1 1.1 3.8 1.7 6 2.2q0-0.9 0-1.8-0.1-22.2-0.1-44.4-0.1-10.7-0.1-21.5-0.1-9.3-0.1-18.7 0-4.9 0-9.9-0.1-5.5-0.1-11 0-1.7 0-3.3 0-1.5 0-3.1 0-1.3 0-2.6c0.6-3 1.6-4.1 4-5.9 2.1-0.5 2.1-0.5 4.3-0.5 1.3 0 1.3 0 2.6 0q1.4 0 2.8 0c1.5 0 1.5 0 3 0q4.9 0 9.8 0 3.4 0 6.8 0 7.1 0 14.2 0.1 8.2 0 16.4 0 7.9 0 15.9 0 3.3 0 6.7 0 4.7 0 9.4 0 1.4 0 2.8 0 1.3 0 2.6 0 1.1 0 2.2 0.1c2.4 0.4 3.2 1.1 4.6 3 0.8 2.4 1.1 3.9 1.1 6.5q0 1.1 0.1 2.2c0 1.3 0 1.3 0 2.5q0 1.2 0.1 2.5 0.1 4 0.1 8 0.1 2.7 0.2 5.4 0.1 6.7 0.2 13.3c3.8-1.4 5.9-2.9 8.6-5.8 3-3.2 5.2-5.5 9.6-6.2 3.3 0 5.4 0 8.4 1.7 1.7 3.1 2.1 6 1.3 9.4-2.4 3.5-5.3 6-8.6 8.6-2.4 2-4.7 3.8-6.9 6.1-1.6 1.5-1.6 1.5-3.4 1.5q-0.3 0.8-0.7 1.6c-1.3 2.3-2.6 3.2-4.7 4.6-2.4 2-3.4 3.2-4.2 6.2-0.2 3.1-0.2 6.1-0.1 9.1q0 1.7 0 3.4 0 4.5 0.1 8.9 0.1 6.3 0.1 12.5 0 3.3 0.1 6.6c0 8.4 0 8.4-2.6 11.1-3 2-4.4 2.6-8 2.6q-1.2 0.1-2.4 0.1c-1.3 0-1.3 0-2.7 0-1.4 0-1.4 0-2.8 0q-4.6 0.1-9.2 0.1-3.2 0-6.4 0-8.4 0.1-16.9 0.2-8.6 0-17.2 0.1-16.8 0.2-33.7 0.3 0 0.9 0 1.8c1.4 1 1.4 1 3.3 2 18.7 12.2 29.7 31.9 34.7 53.2q0.3 1.6 0.6 3.2 0.3 1.2 0.5 2.5c3.2 24.6-3.1 48.1-17.9 67.8-1.9 2.1-3.9 4.1-5.9 6.1q-1 1-2 2.1c-13.3 13.9-34.4 24.7-53.9 25.6-1.6 0-1.6 0-2.5 1q-2 0.2-4.1 0.2-1.3 0-2.6 0c-1.3 0-1.3 0-2.7-0.1q-1.3 0.1-2.7 0.1-1.2 0-2.5 0c-1.2 0-1.2 0-2.4 0-1.8-0.2-1.8-0.2-2.7-1.1q-2.6-0.4-5.3-0.7c-14.4-2.2-26.5-7.5-38.7-15.4q-1.3-0.8-2.6-1.7c-3.4-2.4-6.2-5.2-9.2-8.2-0.8-0.8-0.8-0.8-1.6-1.6-2.2-2.3-4.3-4.4-6-7-1.9-2.4-1.9-2.4-4.7-2.8q-1.6 0-3.2 0.1c-0.8-0.1-0.8-0.1-1.7-0.1q-2.9 0-5.8 0.1-2.1 0-4.1 0-4.5 0-9 0-7 0-14.1 0-16.3 0-32.6 0.1-14.9 0-29.9 0-7 0-14 0-4.4 0-8.8 0-2 0-4 0c-8.8 0.1-16.2-0.6-22.9-6.8-6.1-6.3-7.5-13-7.4-21.5q0-1.3 0-2.6 0-4.4 0-8.8 0-3.1 0-6.3-0.1-8.5 0-17 0-8-0.1-16 0-16.9 0-33.7 0.1-15.4 0-30.8 0-15.8 0-31.6 0-8.9 0-17.8 0-8.3 0-16.7 0-3.1 0-6.1 0-4.2 0-8.4 0-1.2 0-2.4c0.1-7.2 2-13.6 6.7-19.1 10.1-8.9 22.1-8.1 34.8-8.2 2 0.1 2 0.1 2.9-1q0.3-5 0.3-10c0.2-4.8 0.9-7.8 4.2-11.6 5.1-4 12.1-3.8 18.2-2.1z"/>
	<path class="s1" d="m74.8 189.1c83.5 0 167 0 253.1 0 0 20.5 0 40.9 0 62-6.2-0.9-12.4-1.8-18.9-2.7-16.7-0.9-35.2 0.9-50.2 9q-0.8 0.4-1.6 0.8c-7 3.8-7 3.8-13.5 8.4-2 1.6-2 1.6-3.8 1.6q-0.4 1.3-0.9 2.7c-1.3 1.2-1.3 1.2-3 2.6-17.2 14.7-26.3 35.3-28.4 57.6-1.1 16.3 1.5 31.5 9.2 46 0.7 1.6 0.7 1.6 0.7 4.3q-25.5 0.1-50.9 0.2-11.8 0-23.7 0.1-10.3 0-20.6 0-5.4 0.1-10.9 0.1-5.1 0-10.3 0-1.8 0-3.7 0c-7.8 0.1-12.9 0-18.8-5.4-3.6-4.7-3.9-8.1-3.9-13.9q0-1.1 0-2.2 0-3.7 0-7.5 0-2.7 0-5.4 0-7.3 0-14.5 0-6.9 0-13.7 0-20 0.1-39.9c0-29.8 0-59.5 0-90.2z"/>
	<path class="s2" d="m294.7 280.8q0.1 1.2 0.1 2.5 0.1 1.6 0.2 3.2c0.1 1.6 0.1 1.6 0.2 3.2 0.1 2.8 0.1 2.8 2.2 4.5 3.1 0.4 3.1 0.4 6.3 0 2-3 2.1-4.6 2.3-8.2q0.1-1.5 0.2-3c0.1-1.1 0.1-1.1 0.2-2.2 14.5-0.7 25.7 6.3 36.8 15.2 0.8 0.8 0.8 0.8 1.7 1.5 8.5 7.6 14 18.9 15.3 30q0.1 2.7 0 5.4-1.3 0.1-2.7 0.1-1.7 0.1-3.5 0.2c-1.7 0.1-1.7 0.1-3.4 0.2-3 0.1-3 0.1-4.8 2.2-0.3 2.7-0.3 2.7 0 5.4 3.3 2.2 5.3 2.1 9.2 2.3q1.7 0.1 3.4 0.2c1.4 0.1 1.4 0.1 2.7 0.2-0.3 6.4-1.5 11.3-4.5 17q-0.7 1.4-1.3 2.8c-6.3 12.5-15.5 22-28.3 27.8q-1.3 0-2.7 0 0 0.9 0 1.8-3 0.9-5.9 1.8-1.7 0.5-3.4 1c-3 0.7-5.5 0.9-8.6 0.8q-0.1-1.3-0.2-2.7c-0.1-1.7-0.1-1.7-0.2-3.5-0.1-1.7-0.1-1.7-0.2-3.5 0-3 0-3-2.1-4.7-3.2-0.2-3.2-0.2-6.3 0-1.8 1.8-1.3 5.2-1.4 7.7q-0.1 1-0.1 1.9-0.2 2.4-0.3 4.8c-6.3 0-11.9-1.4-17.8-3.4q-1-0.4-1.9-0.7c-4.1-1.5-7.4-3.2-10.8-5.8q0-0.9 0-1.8-0.8-0.1-1.6-0.3c-7.4-2.3-13.7-13.1-17.1-19.6-3.5-6.8-6.7-13.6-6.5-21.4q1.4-0.1 2.7-0.2c1.7-0.1 1.7-0.1 3.5-0.2 1.7-0.1 1.7-0.1 3.4-0.2 3.1-0.1 3.1-0.1 5.7-2.1 0.5-2.7 0.5-2.7 0-5.4-3.2-2.1-4.9-2.2-8.7-2.4q-1.6-0.1-3.2-0.2-1.2 0-2.5-0.1c-1.1-11.6 4.7-22.1 11.7-31 10.9-12.8 25.1-21.8 42.2-21.1z"/>
	<path class="s3" d="m351.8 274.8c3.2 2.7 6.3 5.7 9.3 8.7q0.9 0.7 1.8 1.6c12.9 11.7 20.1 30.4 21 47.6 0.4 15.3-1.9 28.5-8.4 42.4q-0.9 0-1.8 0-0.4 1-0.7 1.9c-7.3 16.7-24.5 30-41 36.8-18.6 6.9-39.9 8.5-58.8 1.8q-1.3-0.5-2.5-0.9-2.4-0.9-4.7-1.8 0-0.9 0-1.8-1.1-0.3-2.1-0.6c-13.8-5.1-23.4-14.8-32-26.4-0.8-1-0.8-1-1.5-2-12-16.7-14.6-36.7-12.3-56.6 3.3-19.7 14.2-38.3 30.3-50.3 30.6-21.1 73.1-25.1 103.4-0.4zm-98.4 25.7c-7.9 9.6-13 19.9-12.6 32.4q1.3 0.1 2.5 0.1 1.6 0.1 3.2 0.2 1.6 0.1 3.2 0.2c2.8 0.4 2.8 0.4 5.5 2.2 0.3 2.7 0.3 2.7 0 5.4-3.3 2.2-5.3 2.1-9.1 2.3-1.8 0.1-1.8 0.1-3.5 0.2q-1.3 0.1-2.7 0.2c1.8 16.5 9.8 28.6 21.1 40.3 1.5 1.3 1.5 1.3 4.1 1q0 0.9 0 1.8c9.4 5.8 19.4 9.6 30.5 9.9 0.1-1.5 0.1-1.5 0.2-2.9q0.1-1.9 0.2-3.8 0-0.9 0.1-1.9c0.3-4.8 0.3-4.8 1.3-5.8 3.1-0.2 3.1-0.2 6.3 0 2.5 2.6 2.1 4.6 2.3 8.2 0.1 1.7 0.1 1.7 0.2 3.5q0.1 1.3 0.2 2.7c6.3-0.4 11.9-1.6 17.9-3.6q0-0.9 0-1.8 1-0.2 2-0.3c9.5-2.2 18.7-10.8 24.2-18.7 1.5-2.6 2.9-5.3 4.3-8q1-1.6 2-3.2c2.8-5.5 4.5-11.2 4.3-17.4-1.3-0.1-1.3-0.1-2.7-0.2q-1.7-0.1-3.4-0.2-1.7-0.1-3.5-0.2c-3-0.3-3-0.3-5.7-2.1-0.2-2.7-0.2-2.7 0-5.4 2.6-2.6 4.7-2.2 8.2-2.4q1.7-0.1 3.5-0.2 1.3 0 2.7-0.1c-0.5-14.6-5.9-26.8-16.7-36.9-10.6-8.7-22.8-16.5-37.1-15.2-0.1 1.1-0.1 1.1-0.2 2.2q-0.1 1.5-0.2 3-0.1 1.4-0.2 2.9c-0.3 2.7-0.3 2.7-2.1 5.3-3.2 0.3-3.2 0.3-6.3 0-2.5-2.4-2.2-4.2-2.4-7.7q-0.1-1.6-0.2-3.2 0-1.3-0.1-2.5c-16.6-1.2-30.3 8.2-41.3 19.7z"/>
	<path class="s4" d="m360.2 149.6c5.3 0 10.7 0 16.2 0 2.6 5.4 2.6 5.4 2.6 7.2q8.4 0 16.8 0 2.8 0 5.7 0 4 0 8.1 0 1.3 0.1 2.6 0.1 1.2 0 2.4 0 1 0 2.1 0c2-0.1 2-0.1 4.5-1 0.6-2.1 1.2-4.2 1.8-6.3 5.4 0 10.7 0 16.2 0q0.1 9.6 0.2 19.3 0.1 3.3 0.1 6.6 0.1 4.7 0.1 9.4 0 1.5 0.1 3c0 6.9 0 6.9-2.7 10.2-1.1 0.9-1.1 0.9-2.3 1.8-1.2 1.8-1.2 1.8-2 3.6q-0.4 1-0.9 2-0.5 1.1-0.9 2.1-0.5 1-1 2c-1.4 3.1-2.6 5.9-3.3 9.2 5 0.4 7.3-1 12.6-2.7 0 10.6 0 21.3 0 32.3-15.2 0.4-15.2 0.4-20 0.5q-1.9 0.1-3.8 0.1c-1 0.1-1 0.1-2 0.1-3.1-0.2-3.1-0.2-5.6 1.1q-2.7 0.1-5.4 0 0-0.9 0-1.8-2.7 0-5.4 0 0 0.9 0 1.8c-2.6 0.1-2.6 0.1-5.4 0-0.9-0.9-0.9-0.9-1.8-1.8-9.8-0.3-19.5-0.6-29.6-0.9 0-32.3 0-64.6 0-97.9z"/>
	<path class="s5" d="m91.5 145.9q1.4 0 2.9 0 1.5 0 3 0c1.5 0 1.5 0 3.1 0q3.8 0.1 7.5 0.1 0.1 1 0.1 2c0.5 6.6 1.2 11.2 6.2 16 5.1 2.9 10.3 3.2 15.9 1.7 4.8-2.1 7-6.2 9.2-10.7 0.3-3 0.6-6 0.9-9 14.8 0 29.6 0 44.9 0 0.4 5.3 0.4 5.3 0.9 10.8 2.4 4 3.8 6.3 7.9 8.5 5.6 0.9 11.1 1.3 16.3-1.3q1.4-0.5 2.7-0.9c1-2.2 1-2.2 1.8-4.5q0.9-1.8 1.8-3.6c0.3-3 0.6-6 0.9-9 14.8 0 29.6 0 44.9 0 0.3 3.5 0.6 7.1 0.9 10.8 2.5 4.6 4.4 7.1 9.2 9 4.8 1.2 9.5 1.3 14-0.9 2-1.3 3.5-2.3 4.6-4.5q0.9 0 1.8 0c0.6-4.8 1.2-9.5 1.8-14.4q5.2-0.2 10.4-0.2 1.4-0.1 2.9-0.1c7.1-0.1 10.9 0.7 16.3 5.4q0.6 0.8 1.2 1.6c0.7 0.7 0.7 0.7 1.3 1.5 4 6.4 2 18.8 2 24.1-84.1 0-168.2 0-254.9 0 0-20.6 0-20.6 4.5-27.8 4.4-3.4 7.6-4.6 13.1-4.6z"/>
	<path class="s6" d="m414.9 137q7.6-0.1 15.2-0.2 2.6 0 5.2 0 3.7-0.1 7.4-0.1 1.2 0 2.4 0 1 0 2.1 0c1 0 1 0 2 0 2.2 0.4 2.9 1.2 4.3 3 0.8 2.4 1.1 3.9 1.1 6.5 0 1.1 0 1.1 0.1 2.2q0 1.3 0 2.5 0 1.2 0.1 2.5 0.1 4 0.1 8 0.1 2.7 0.2 5.4 0.1 6.7 0.2 13.3c3.8-1.4 5.9-2.9 8.6-5.8 3-3.2 5.2-5.5 9.6-6.2 3.3 0 5.4 0 8.4 1.7 1.7 3.1 2.1 6 1.3 9.4-2.4 3.5-5.3 6-8.6 8.6-2.4 2-4.7 3.8-6.9 6.1-1.6 1.5-1.6 1.5-3.4 1.5q-0.3 0.8-0.7 1.6c-1.3 2.3-2.6 3.2-4.7 4.6-2.4 2-3.4 3.2-4.2 6.2-0.3 3.1-0.3 6.2-0.3 9.3q0 1.7 0 3.4 0 4.5 0 9 0 4.5 0 9.1 0 9 0 17.9-0.4 0-0.9 0c-0.3-14.5-0.6-29.1-0.9-44q-0.4 0-0.9 0 0 0.8 0 1.6 0 8.3-0.1 16.7-0.1 3.1-0.1 6.2 0 4.4-0.1 8.9 0 1.4 0 2.8 0 1.3-0.1 2.6c0 1.2 0 1.2 0 2.3-0.6 2.7-1.7 3.3-4 4.7-2 0.3-2 0.3-4.1 0.3q-1.2 0-2.5 0.1-1.3-0.1-2.6-0.1c-1.4 0-1.4 0-2.9 0q-4.6 0.1-9.2 0-3.3 0-6.5 0-6.7 0-13.4 0-8.7 0-17.4 0-6.6 0-13.2 0-3.2 0-6.4 0-4.5 0-8.9-0.1-1.3 0.1-2.7 0.1c-1.2-0.1-1.2-0.1-2.4-0.1q-1.1 0-2.2 0c-1.7-0.2-1.7-0.2-3.5-2-0.2-2-0.2-2-0.2-4.6q0-1.4 0-2.9 0-1.6 0-3.2 0-1.7 0-3.4 0-4.6 0-9.2 0-3.9 0-7.7-0.1-9.1-0.1-18.1 0.1-9.4 0-18.7 0-8.1 0-16.1 0-4.8 0-9.6 0-5.3 0-10.7 0-1.6 0-3.2 0-1.4 0-2.9 0-1.3 0-2.6c0.4-2.5 1-3.3 3-4.8 2.4-0.4 2.4-0.4 5.4-0.5q1.6 0 3.3-0.1 1.9 0 3.7 0 1.9-0.1 3.8-0.1c15.5-0.4 31.1-0.3 46.6-0.2q0-0.5 0-0.9zm-54.7 12.6c0 32.3 0 64.6 0 97.9 14.7 0.5 14.7 0.5 29.6 0.9 0.9 0.9 0.9 0.9 1.8 1.8 2.8 0.2 2.8 0.2 5.4 0q0-0.9 0-1.8 2.6 0 5.4 0 0 0.9 0 1.8 2.7 0.1 5.4 0 0.4-0.4 0.9-0.9 3.3-0.2 6.7-0.3 0.9 0 1.8 0 3.4-0.1 6.8-0.2c7.5-0.2 7.5-0.2 15.2-0.4 0-10.7 0-21.3 0-32.3-2.7 0.9-5.4 1.7-8.1 2.7-2.7 0.1-2.7 0.1-4.5 0 6.7-17.7 6.7-17.7 10.8-21.5 2.2-2.3 2.2-3.4 2.2-6.5 0-1.4 0-1.4 0-2.8q0-1.5-0.1-3c0-1.5 0-1.5 0-3q0-4.9-0.1-9.7 0-3.3 0-6.6-0.1-8.1-0.2-16.1c-5.4 0-10.7 0-16.2 0-0.6 2-1.2 4.1-1.8 6.3-2.5 0.8-4 1-6.6 1q-1.2 0-2.4 0-1.3 0-2.6-0.1-1.3 0-2.6 0-4.2 0-8.4 0-2.8 0-5.6 0-7 0-14 0c-0.9-2.4-1.8-4.8-2.6-7.2-5.4 0-10.7 0-16.2 0z"/>
	<path class="s7" d="m346.8 285.1c11.3 9.3 19.3 21.1 23.3 35.2q0.3 0.9 0.5 1.9c4.5 17.9 0.1 36.2-8.7 52-5.9 9.3-13.2 16.4-22.3 22.5q-0.9 0.5-1.7 1.1c-14 8.8-29.9 10.1-45.9 9.7q0-0.9 0-1.8-1.5 0.1-3 0.1c-4.8 0-8.7-1.2-13.2-2.8q-1.6-0.6-3.2-1.2c-6.8-2.5-13.2-5.2-18.3-10.5q-0.4-1.3-0.9-2.7-1.8-1-3.6-1.8c-11-8.5-18.4-24.2-20.3-37.8-1.8-20.2 2.4-38 14.9-54.3 9.4-11.1 23.2-21.2 37.7-23.8 1.4-0.3 1.4-0.3 2.7-0.6 22.5-4 44.1 0.6 62 14.8zm-93.4 15.4c-7.9 9.6-13 19.9-12.6 32.4q1.3 0.1 2.5 0.1 1.6 0.1 3.2 0.2 1.6 0.1 3.2 0.2c2.8 0.4 2.8 0.4 5.5 2.2 0.3 2.7 0.3 2.7 0 5.4-3.3 2.2-5.3 2.1-9.1 2.3-1.8 0.1-1.8 0.1-3.5 0.2q-1.3 0.1-2.7 0.2c1.8 16.5 9.8 28.6 21.1 40.3 1.5 1.3 1.5 1.3 4.1 1q0 0.9 0 1.8c9.4 5.8 19.4 9.6 30.5 9.9 0.1-1.5 0.1-1.5 0.2-2.9q0.1-1.9 0.2-3.8 0-0.9 0.1-1.9c0.3-4.8 0.3-4.8 1.3-5.8 3.1-0.2 3.1-0.2 6.3 0 2.5 2.6 2.1 4.6 2.3 8.2 0.1 1.7 0.1 1.7 0.2 3.5q0.1 1.3 0.2 2.7c6.3-0.4 11.9-1.6 17.9-3.6q0-0.9 0-1.8 1-0.2 2-0.3c9.5-2.2 18.7-10.8 24.2-18.7 1.5-2.6 2.9-5.3 4.3-8q1-1.6 2-3.2c2.8-5.5 4.5-11.2 4.3-17.4-1.3-0.1-1.3-0.1-2.7-0.2q-1.7-0.1-3.4-0.2-1.7-0.1-3.5-0.2c-3-0.3-3-0.3-5.7-2.1-0.2-2.7-0.2-2.7 0-5.4 2.6-2.6 4.7-2.2 8.2-2.4q1.7-0.1 3.5-0.2 1.3 0 2.7-0.1c-0.5-14.6-5.9-26.8-16.7-36.9-10.6-8.7-22.8-16.5-37.1-15.2-0.1 1.1-0.1 1.1-0.2 2.2q-0.1 1.5-0.2 3-0.1 1.4-0.2 2.9c-0.3 2.7-0.3 2.7-2.1 5.3-3.2 0.3-3.2 0.3-6.3 0-2.5-2.4-2.2-4.2-2.4-7.7q-0.1-1.6-0.2-3.2 0-1.3-0.1-2.5c-16.6-1.2-30.3 8.2-41.3 19.7z"/>
	<path class="s8" d="m74.8 189.1c83.5 0 167 0 253.1 0 0 20.5 0 40.9 0 62-8.9-1.2-17.8-2.4-26.9-3.6 0-3.5 0-7.1 0-10.8q-1.8-0.4-3.6-0.9c-1.8-1.8-1.8-1.8-2-4.9q0-1.8 0.1-3.7c0-2.2 0-4.4 0.1-6.6-7.7 0-15.4 0-23.3 0 0 6.1 0 6.1 0.1 12.2q0 1.2 0 2.3 0 1.2 0.1 2.4c-0.2 1.9-0.2 1.9-2 3.7-5.6 0.5-5.6 0.5-7.8-1-2.7-3.8-1.6-9.7-1.6-14.2q0-1.7-0.1-3.5c0-1.7 0-1.7 0-3.4q0-1.5 0-3.1c0.5-2.6 0.5-2.6 1.8-4.8 3.5-2.2 6.7-1.9 10.7-1.8q1.3 0 2.5 0 2.6 0 5.3 0 3.9 0.1 7.9 0 2.6 0.1 5.1 0.1c1.2 0 1.2 0 2.4 0q1.1 0 2.3 0c0.9 0 0.9 0 1.9 0 1.9 0.3 1.9 0.3 5.5 2.1 0-7.1 0-14.3 0-21.6-76.5 0-152.9 0-231.6 0q0-0.4 0-0.9z"/>
	<path class="s9" d="m108.2 316.4q1.2-0.1 2.5-0.1 2.5 0 5 0.1 3.9 0 7.8-0.1 2.5 0 5 0.1c1.1-0.1 1.1-0.1 2.3-0.1 3 0.1 5.4 0.2 8.2 1.2 2.3 3.3 1.8 6.8 1.7 10.6q0 1.3 0 2.6-0.1 4.1-0.1 8.2-0.1 2.8-0.1 5.5-0.1 6.8-0.2 13.6c-2.6 1.5-4.4 2.1-7.4 2.1q-1.1 0-2.2 0-1.2 0-2.5 0-1.2 0.1-2.5 0.1-2.6 0-5.2 0-4 0-8 0-2.5 0.1-5.1 0.1-1.2 0-2.4 0c-5.4 0-5.4 0-7.8-1.8-1.3-3.5-1.2-6.8-1.2-10.6q0-1.2 0-2.4-0.1-2.6 0-5.1 0-3.9-0.1-7.8 0-2.5 0-5 0-1.2 0-2.4c0-5.2 0-5.2 1.8-7.6 3.5-1.3 6.8-1.3 10.5-1.2z"/>
	<path class="s10" d="m158.3 316.3q1.1 0 2.2 0c1.2 0 1.2 0 2.3 0q1.2 0 2.5 0 2.5 0 5.1 0 3.9 0 7.7 0 2.5 0 5 0 1.1 0 2.3-0.1c3.5 0.1 5.7 0.3 8.8 1.8 2.6 3.4 2.4 6.3 2.3 10.4q0 1.2 0 2.4 0 2.5 0 4.9 0 3.8 0 7.6 0 2.4 0 4.9 0 1.1 0 2.3c-0.1 3.2-0.2 5.2-1.8 8-3.5 2.1-6.8 1.8-10.8 1.8-1.3 0-1.3 0-2.5 0q-2.6 0-5.2 0-4-0.1-8.1 0-2.5-0.1-5-0.1-1.2 0-2.5 0-1.1 0-2.2 0-1 0-2 0c-2.3-0.5-3-1.2-4.4-3.1-0.3-1.7-0.3-1.7-0.4-3.7q0-1.1 0-2.2 0-1.2 0-2.5 0-1.2 0-2.5 0-2.6 0-5.2 0.1-4.1 0-8.1 0-2.5 0-5.1 0-1.2 0-2.4 0-1.1 0-2.3 0.1-0.9 0.1-2c0.7-3.7 3-4.7 6.6-4.8z"/>
	<path class="s11" d="m208.5 210.7c1.7-0.4 1.7-0.4 3.8-0.4 1.2 0 1.2 0 2.4 0 1.3 0 1.3 0 2.6 0.1q1.2 0 2.6-0.1 2.7 0.1 5.5 0.1 4.2 0 8.4 0 2.7 0 5.4 0 1.2 0 2.5 0 1.2 0 2.4 0c1.1 0 1.1 0 2.1 0 1.8 0.3 1.8 0.3 4.5 2.1 0.3 2.7 0.4 5.3 0.4 8.1q0 1.2 0 2.4 0 2.6 0 5.2 0 3.9 0.1 7.8 0 2.5 0 5c0 1.1 0 1.1 0 2.3 0 3.3-0.2 5.4-1.8 8.3-3.5 2-6.8 1.8-10.8 1.8q-1.2 0-2.5 0-2.6 0-5.2 0-4 0-8 0-2.5 0-5.1 0-1.2 0-2.4 0c-5.4-0.1-5.4-0.1-7.8-1.8-1.3-3.5-1.2-6.7-1.2-10.4q0-1.2 0-2.4 0-2.5 0-5 0.1-3.8 0.1-7.6 0-2.4 0-4.8 0-1.2 0-2.3c0-5.4 0-5.4 2-8.4z"/>
	<path class="s12" d="m153.8 263.7q8.1-0.1 16.3-0.2 2.8 0 5.5 0 4-0.1 8-0.1 1.2 0 2.5 0c3.1 0 5.7 0.1 8.6 1.2 2.1 3 1.8 6.3 1.7 9.8q0 1.2 0 2.4 0 2.5 0 5 0 3.8 0 7.6 0 2.4 0 4.8 0 1.1 0 2.3c-0.1 2.9-0.3 5.3-1.2 8.1-3.3 2.3-6.9 1.8-10.8 1.8q-1.3 0-2.6 0-2.7 0-5.5-0.1-4.2 0-8.4 0-2.7 0-5.4 0-1.3 0-2.6 0c-1.1 0-1.1 0-2.3 0q-1.1 0-2.1 0c-1.7-0.4-1.7-0.4-3.5-3.1-0.2-2.7-0.3-5.3-0.2-8q0-1.1 0-2.3 0-2.5 0-5 0-3.8 0-7.6 0-2.5 0-4.9 0-1.1-0.1-2.3 0.1-1.1 0.1-2.1 0-1 0-1.9c0.2-2.1 1-3.6 2-5.4z"/>
	<path class="s13" d="m102.8 263.3c1.1 0 1.1 0 2.2 0q1.2 0 2.4 0 1.3 0 2.5 0 2.6 0 5.3 0 4 0.1 8 0 2.5 0 5 0 1.2 0 2.5 0c3 0.1 5.5 0.2 8.3 1.3 2.2 3 1.8 6.3 1.8 10q0 1.2 0 2.5 0 2.5-0.1 5.1 0 3.9 0 7.8 0 2.5 0 5 0 1.2 0 2.4c0 1.1 0 1.1 0 2.2q0 0.9 0 1.9c-0.5 2.3-1.2 3.1-3.1 4.4-1.7 0.4-1.7 0.4-3.8 0.4-1.1 0-1.1 0-2.3 0q-1.2 0-2.5 0-1.2 0-2.5 0-2.7 0-5.4 0-4.1 0-8.2 0.1-2.6 0-5.2 0-1.3 0-2.5 0c-5.6-0.1-5.6-0.1-8-1.8-1.3-3.5-1.2-6.7-1.2-10.4q0-1.2 0-2.4 0-2.5 0-4.9 0-3.9 0-7.7 0-2.4 0-4.8 0-1.1 0-2.3c0-5.3 0-5.3 1.5-7.3 1.9-1.4 2.9-1.4 5.3-1.5z"/>
	<path class="s14" d="m157.6 210.4q1.1 0 2.3 0 1.3 0 2.6 0c1.3 0 1.3 0 2.6 0q2.8 0 5.6 0 4.2 0 8.4 0 2.7-0.1 5.3 0c1.3-0.1 1.3-0.1 2.6-0.1q1.2 0 2.4 0 1 0 2.1 0c2.3 0.5 3.1 1.2 4.5 3.1 0.3 2.7 0.4 5.2 0.4 8q0 1.1 0 2.4 0 2.4 0 4.9 0 3.8 0 7.7 0 2.4 0 4.8 0 1.1 0 2.3c0 3.2-0.1 5.3-1.7 8.1-3.5 2-6.7 1.8-10.6 1.8q-1.2 0-2.4 0-2.6 0-5.1-0.1-3.9 0-7.8 0-2.5 0-4.9 0-1.2 0-2.4 0c-3 0-5.4-0.2-8.2-1.2-2.2-3.2-1.8-6.6-1.7-10.3q0-1.3 0-2.6 0-2.6 0-5.2 0.1-4 0.1-8.1 0-2.5 0-5.1 0-1.2 0-2.4c0-1.2 0-1.2 0-2.3q0-1 0.1-2c0.5-3.6 2.7-3.7 5.8-3.7z"/>
	<path class="s15" d="m353.7 139.5q1.6 0 3.2 0c1.7 0 1.7 0 3.4 0 1.8 0.1 1.8 0.1 3.6 0.1q1.8 0 3.6 0 4.4 0 8.9 0.1 0 2.6 0 5.4c-6.9 0-13.7 0-20.7 0 0 35.6 0 71.1 0 107.8 11.3-0.3 22.5-0.6 34.1-0.9 0.9-1.3 0.9-1.3 1.8-2.7 2.7 0.5 2.7 0.5 5.4 0.9q0-0.9 0-1.8 2.6 0 5.4 0 0 0.9 0 1.8c2.1-0.3 4.1-0.6 6.3-0.9q0.4 1.3 0.9 2.7 7 0 14.1 0.1 2.4 0 4.8 0 3.5 0 6.9 0c1.1 0 1.1 0 2.2 0q2.6 0 5.2-0.1c1.9-1.9 1-6.5 1.1-9.2q0-2.5 0-5.1 0.1-4.1 0.1-8.1 0.1-3.9 0.1-7.8 0-1.2 0-2.5c0.1-1.1 0.1-1.1 0.1-2.3q0-1 0-2c0.4-1.6 0.4-1.6 3.1-3.4q1.7 0 3.5 0 0.2 9.3 0.2 18.6 0.1 3.2 0.1 6.4 0.1 4.6 0.1 9.1 0 1.4 0 2.9c0.1 1.3 0.1 1.3 0.1 2.7q0 1.1 0 2.3c-0.5 2-0.5 2-2 3.5-2.3 1.4-3.5 1.5-6.1 1.5q-1.2 0-2.5 0.1-1.3-0.1-2.6-0.1c-1.4 0-1.4 0-2.9 0q-4.6 0.1-9.2 0-3.3 0-6.5 0-6.7 0-13.4 0-8.7 0-17.4 0-6.6 0-13.2 0-3.2 0-6.4 0-4.5 0-8.9-0.1-1.3 0.1-2.7 0.1c-1.2-0.1-1.2-0.1-2.4-0.1q-1.1 0-2.2 0c-1.7-0.2-1.7-0.2-3.5-2-0.2-2-0.2-2-0.2-4.6 0-1.4 0-1.4 0-2.9q0-1.6 0-3.2 0-1.7 0-3.4 0-4.6 0-9.2 0-4.9 0-9.7 0-8.1 0-16.2 0-9.3 0-18.7 0-8 0-16.1 0-4.8 0-9.6 0-5.3 0-10.7 0-1.6 0-3.2 0-1.5 0-2.9 0-1.3 0-2.6c0.4-3.2 1.4-3.8 4.5-4z"/>
	<path class="s16" d="m273.5 209.3c1.3 0 1.3 0 2.5 0q2.6 0 5.3 0 3.9 0 7.9 0 2.6 0 5.1 0 1.2 0 2.4 0c3.5 0 5.5 0.1 8.4 2 1.5 2.4 1.7 3.8 1.7 6.6q0 1.3 0 2.6 0 1.4-0.1 2.8 0.1 1.3 0.1 2.7c-0.1 7.6-0.1 7.6-3.1 10.7-2.8 0.4-4.5 0.6-6.9-0.9-1.9-2.7-1.5-5.5-1.4-8.7 0.1-3.2 0.1-3.2 0.2-6.5-7.7 0-15.4 0-23.3 0 0 6.1 0 6.1 0.1 12.2q0 1.2 0 2.3 0 1.2 0.1 2.4c-0.2 1.9-0.2 1.9-2 3.7-5.6 0.5-5.6 0.5-7.8-1-2.7-3.8-1.6-9.7-1.6-14.2q0-1.7-0.1-3.5 0-1.7 0-3.4 0-1.5 0-3.1c0.5-2.6 0.5-2.6 1.8-4.8 3.5-2.2 6.7-1.9 10.7-1.9z"/>
	<path class="s17" d="m272.3 220.6c7.7 0 15.4 0 23.3 0 0.2 6.5 0.2 6.5 0.2 8.6 0 1.9 0 1.9 0.7 4.8q2.2 1.4 4.5 2.7c0.4 2.7 0.4 2.7 0.3 5.6q-0.1 1.5-0.2 3c0 1.1 0 1.1-0.1 2.2-11.2 1.3-22.1 2.4-33.2 0.9-0.9-0.9-0.9-0.9-1-3.6q0-1.3 0.1-2.7-0.9-0.4-1.8-0.9c2-0.6 4.1-1.2 6.3-1.8 0.3-6.2 0.5-12.4 0.9-18.8z"/>
	<path class="s18" d="m303.7 306.8c1.5 1 1.5 1 2.7 2.7 0.1 2.6 0.1 2.6-0.1 5.6-1.1 14-1.1 14 4.4 26.4 2.7 2.7 5.5 5 8.5 7.3 3.2 2.6 3.2 2.6 3.9 5.9-0.6 2.4-0.6 2.4-2.1 4.1-2.6 1.3-3.7 1.5-6.6 1-2.2-1.7-4.1-3.8-6.1-5.9q-1.6-1.7-3.1-3.4-0.8-0.8-1.6-1.7c-1.7-1.6-1.7-1.6-3.7-2.6-2.4-1.2-3.6-2.1-5.2-4.3-0.9-4.8-0.9-9.3-0.7-14.1q0.1-3.4 0.1-6.8 0-2.2 0.1-4.3 0-1 0-2.1c0.1-2.6 0.2-4.6 1.7-6.9 2.6-1.5 4.8-1.2 7.8-0.9z"/>
	<path class="s19" d="m167 219.5q1.6 0 3.2 0 1.6 0 3.3 0.1c1.7-0.1 1.7-0.1 3.4-0.1 1.5 0 1.5 0 3.1 0q1.5 0 3 0c2.2 0.2 2.2 0.2 3.1 1.1q0.1 2.3 0.1 4.7c0 1.5 0 1.5 0 3q0 1.5 0 3c0 1.6 0 1.6 0 3.1q0 1.5 0 3 0 1.3 0 2.7c-0.1 2-0.1 2-1 2.9q-2.6 0.2-5.2 0.1-1.5 0-3.1 0-1.7 0-3.4 0c-1.6 0-1.6 0-3.3 0q-1.6 0-3.2 0-1.4 0-2.9 0c-2.2-0.1-2.2-0.1-3.1-1q-0.2-2.4-0.1-4.7 0-1.5-0.1-3c0.1-1.5 0.1-1.5 0.1-3.1q0-1.5-0.1-3 0.1-1.5 0.1-3 0-1.3 0-2.7c0.2-4 2.6-3.1 6.1-3.1z"/>
	<path class="s20" d="m381.7 138.8q7.7 0 15.3-0.1 2.6 0 5.2 0 3.8 0 7.5 0c1.2 0 1.2 0 2.4 0q2.8 0 5.5 0.1c1.7 1.7 1.1 4.4 1.2 6.6q0 1.6 0 3.2c-0.3 2.8-0.3 2.8-1.2 4.3-2.8 1.9-5.8 1.5-9 1.5q-1.1 0-2.2 0-2.2 0-4.5 0-3.4-0.1-6.9 0-2.1-0.1-4.3-0.1-1 0-2.1 0c-4.9 0-4.9 0-6.9-2-0.1-2.3-0.1-4.6-0.1-6.9q0-0.9 0.1-1.9 0-2.4 0-4.7z"/>
	<path class="s21" d="m167.5 273.5q1.5 0 3 0 1.5 0 3 0 1.6 0 3.1 0 1.5 0 2.9 0c1.4 0 1.4 0 2.7 0 2.1 0.1 2.1 0.1 3 1q0.1 2.4 0.1 4.8 0 1.3 0 2.6 0 1.7 0 3.4c-0.1 3.6-0.1 7.1-0.1 10.7-7.7 0-15.4 0-23.3 0 0-3.5-0.1-7-0.1-10.7 0-1.7 0-1.7 0-3.4 0-1.3 0-1.3 0-2.6q0-1.4 0-2.7c0.2-4 2.3-3.1 5.7-3.1z"/>
	<path class="s22" d="m107.1 273.6c7.4 0 14.8 0 22.5 0 0 7.4 0 14.8 0 22.4-7.4 0-14.8 0-22.5 0 0-7.4 0-14.8 0-22.4z"/>
	<path class="s23" d="m217.5 220.6c7.4 0 14.8 0 22.4 0 0 7.4 0 14.8 0 22.4-7.4 0-14.8 0-22.4 0 0-7.4 0-14.8 0-22.4z"/>
	<path class="s24" d="m161.9 327.5c7.7 0 15.4 0 23.3 0 0 7.1 0 14.2 0 21.6-7.7 0-15.4 0-23.3 0 0-7.2 0-14.3 0-21.6z"/>
	<path class="s25" d="m379.4 219.5c1.5 0 1.5 0 3 0q1.3 0 2.8 0c1.2 0 1.2 0 2.5-0.1 2.1 0.3 2.1 0.3 3.9 2.1 0.2 1.8 0.2 1.8 0.3 4 0 1.2 0 1.2 0 2.4q-0.1 1.3-0.1 2.5 0 1.3 0.1 2.6 0 1.2 0 2.4-0.1 1.1-0.1 2.2c-0.2 1.8-0.2 1.8-2 3.6-2 0.3-2 0.3-4.4 0.3q-1.3 0-2.7 0-1.3 0-2.8 0-1.3 0-2.7 0-1.3 0-2.7 0-1.2 0-2.4 0c-2-0.3-2-0.3-3.8-2.1-0.2-1.9-0.2-1.9-0.2-4.2q0-1.3 0-2.6 0-1.3 0-2.7 0-1.3 0-2.6c0.1-9.3 2.7-7.8 11.3-7.8z"/>
	<path class="s26" d="m374.5 191.6c1.3 0 1.3 0 2.7 0q1.3 0 2.7 0 1.4 0 2.8 0 1.3 0 2.7 0 1.2 0 2.4 0c2 0.2 2 0.2 3.8 2 0.2 1.9 0.2 1.9 0.2 4.3q0 1.3 0 2.6-0.1 1.3-0.1 2.7 0 1.3 0 2.7 0 3.3-0.1 6.6c-3.5 1.7-7.8 1-11.7 1q-1.3 0.1-2.7 0.1c-1.4 0-1.4 0-2.7 0q-1.2 0-2.4 0c-2-0.2-2-0.2-3.8-2-0.3-1.8-0.3-1.8-0.3-4.1q0-1.2 0-2.4c0-1.2 0-1.2 0.1-2.5q-0.1-1.3-0.1-2.5 0-1.2 0-2.5 0-1 0-2.2c0.6-4 3.1-3.8 6.5-3.8z"/>
	<path class="s27" d="m214.8 268.1q1.7 0 3.5 0c0.9 0 0.9 0 1.9 0q2.9 0 5.9 0 2 0 4 0 4.9 0.1 9.8 0.1c-0.9 3-1.6 3.4-3.9 5.3-9.2 7.9-15.3 17.6-21.2 27.9q-1.8-0.4-3.6-0.9 0-6.7 0-13.4 0-2.2 0-4.5-0.1-3.3-0.1-6.5 0-1.1 0-2.1 0-2.5 0.1-4.9c0.9-0.9 0.9-0.9 3.6-1z"/>
	<path class="s28" d="m107.1 327.5c7.4 0 14.8 0 22.5 0 0 7.1 0 14.2 0 21.6-7.4 0-14.8 0-22.5 0 0-7.2 0-14.3 0-21.6z"/>
	<path class="s29" d="m373.9 164.7q1.5 0 3 0 1.5 0 3 0 1.6 0 3.1 0 1.5 0 2.9 0c1.4 0 1.4 0 2.8 0 2 0.1 2 0.1 2.9 1q0.1 2.1 0.1 4.2c0 1.3 0 1.3 0 2.6q0 1.3 0 2.7c0 1.3 0 1.3 0 2.7q0 1.2 0 2.5 0 1.2 0 2.4c-0.1 1.8-0.1 1.8-1 2.7q-2.4 0.1-4.8 0.1-1.4 0-2.9 0-1.5 0-3.1 0-1.5 0-3 0-1.5 0-3 0-1.3 0-2.7 0c-2-0.1-2-0.1-2.9-1q-0.1-2.1-0.1-4.2 0-1.2 0-2.5 0-1.4 0-2.7 0-1.3 0-2.7 0-1.3 0-2.6 0-1.1 0-2.3c0.2-3.7 2.6-2.9 5.7-2.9z"/>
	<path class="s30" d="m423 139.7q5.3-0.1 10.6-0.1 2.7 0 5.4-0.1c1.7 0 1.7 0 3.4 0q1.5 0 3.1 0c2.7 0.2 2.7 0.2 5.3 2 0.4 1.8 0.4 1.8 0.4 4.2q0 1.3 0.1 2.6c0 1.4 0 1.4 0 2.8 0 1.5 0 1.5 0 3q0 3 0 6.1 0 4.7 0.1 9.4 0 2.9 0 5.9 0 1.4 0 2.8c0 7.3 0 7.3-2.7 10.1-2.3 1.6-2.3 1.6-4.1 1.6q-0.1-0.8-0.1-1.6-0.1-8.4-0.3-16.8 0-3.1-0.1-6.2-0.1-4.5-0.2-9 0-1.4 0-2.8 0-1.3-0.1-2.7c0-1.1 0-1.1 0-2.3 0.1-1.7 0.1-1.7-1-2.6q-2.2-0.2-4.4-0.3-1.4-0.1-2.7-0.1-1.4-0.1-2.9-0.1-1.4-0.1-2.8-0.1-3.5-0.2-7-0.3 0-2.7 0-5.4z"/>
	<path class="s31" d="m452.6 206.2q0.5 0 0.9 0 0.2 10.1 0.2 20.2 0 4.7 0.1 9.4 0.1 5.4 0.1 10.8 0 1.7 0 3.5c0 1.5 0 1.5 0 3.1q0.1 1.4 0.1 2.8c-0.5 2.3-0.5 2.3-2 3.8-2.3 1.4-3.5 1.5-6.1 1.5-1.3 0-1.3 0-2.5 0q-1.3 0-2.7 0-1.4 0-2.8 0-4.7 0-9.3 0-3.2 0-6.5 0-8.4-0.1-16.9-0.1-8.7-0.1-17.3-0.1-17 0-34-0.1 0-0.9 0-1.8-0.9-0.4-1.8-0.9c0.8 0 0.8 0 1.5 0q17.8-0.1 35.6-0.3 8.6 0 17.2-0.1 8.3 0 16.6-0.1 3.2 0 6.4 0 4.4-0.1 8.8-0.1 1.3 0 2.7 0c1.2 0 1.2 0 2.4 0q1.1-0.1 2.1-0.1c2.1-0.1 2.1-0.1 4.5-2 0.5-1.9 0.5-1.9 0.4-4.2q0.1-1.4 0.1-2.7 0-1.4 0-2.9c0-1.5 0-1.5 0.1-3q0-4.6 0.1-9.3 0-3.2 0.1-6.4 0.1-7.7 0.1-15.5 0.5 0 0.9 0 0.5-2.7 0.9-5.4z"/>
	<path class="s8" d="m281.2 119.9q1.4 0.9 2.7 1.8c0.3 2.4 0.4 4.6 0.4 6.9 0 1.1 0 1.1 0 2.1q0 2.2 0 4.4 0 3.3 0 6.7 0 2.1 0 4.2c0 1 0 1 0 2 0 2.8-0.2 4.9-1.5 7.4-1.6 1.4-1.6 1.4-4.8 1.8q-1.5-0.2-3.1-0.4c-2.2-3.4-2-6.1-1.9-10.1q0-1 0-2.1 0-3.5 0-6.9 0.1-2.3 0.1-4.6 0-5.7 0.1-11.4c2.8-1.5 4.7-2.1 8-1.8z"/>
	<path class="s32" d="m200.9 119.7c3.1 0.2 3.1 0.2 5.8 2 0.3 2.4 0.4 4.6 0.4 6.9q0 1.1 0 2.1 0.1 2.2 0 4.4 0 3.3 0.1 6.7 0 2.1 0 4.2c0 1 0 1 0 2 0 3.1-0.2 4.9-2.1 7.4-1.9 1.4-1.9 1.4-4.2 1.8-2.2-0.4-2.2-0.4-3.7-1.4-1.9-2.8-1.6-5.7-1.6-9q0-1.1 0-2.2 0-2.2 0.1-4.5 0-3.4 0-6.9 0-2.1 0-4.3 0-1.1 0-2.1c0.1-6.7 0.1-6.7 5.2-7.1z"/>
	<path class="s8" d="m123.7 119.6c3.2 0.3 3.2 0.3 4.7 1.3 1.8 2.6 1.6 5.4 1.6 8.5q0 1 0 2.1 0 2.1 0 4.2 0 3.2 0 6.4 0 2.1 0 4.1c0 1 0 1 0 2 0 3-0.2 4.7-2.1 7.2-1.9 1.4-1.9 1.4-4.7 1.2-2.6-0.7-2.6-0.7-4.4-2.5-0.2-2.5-0.3-4.8-0.2-7.2q0-1.1-0.1-2.2 0-2.2 0.1-4.5 0-3.5-0.1-6.9 0-2.2 0.1-4.4-0.1-1-0.1-2.1c0.1-6.7 0.1-6.7 5.2-7.2z"/>
	<path class="s33" d="m467 177.6c3 1.3 4.3 3.6 6.3 6.1q-3.4 3.2-6.8 6.4-0.9 0.8-1.8 1.8c-11.1 10.3-11.1 10.3-15.7 13.4-3.4-0.2-4.9-2.1-7.1-4.5 1.3-3.2 3-4.9 5.6-7.1 2.9-2.5 5.7-5.1 8.4-7.7q0.8-0.8 1.7-1.7 1.6-1.6 3.3-3.2c3.8-3.7 3.8-3.7 6.1-3.5z"/>
	<path class="s34" d="m406 222.4c2.7 0.4 3.9 1.1 6.3 2.7 2.7-0.4 3.9-1.2 6.2-2.7 2 0.3 2 0.3 3.6 0.9-0.3 2.1-0.3 2.1-0.9 4.5q-1.3 0.8-2.7 1.7 0 0.9 0 1.8c1.1 0.9 1.1 0.9 2.3 1.7 1.1 1 1.1 1 2.2 1.9q0 1.8 0 3.6c-4.9 0.4-4.9 0.4-7-1.2-1.1-1.5-1.1-1.5-1.1-3.3q-1.1 1.1-2.4 2.3c-2.1 1.7-2.7 2.2-5.5 2.5q-1-0.1-1.9-0.3 0-2.2 0-4.5 1.7-0.8 3.6-1.8c-0.7-0.9-0.7-0.9-1.3-1.9-1.4-2.5-2-4.3-2.3-7q0.4-0.5 0.9-0.9z"/>
	<path class="s35" d="m423.8 194.7q0.9 0.3 1.9 0.7c-0.4 3.7-1.3 5.3-4.2 7.6-1 0.8-1 0.8-2 1.6q-0.9 0.8-1.9 1.6-0.7 0.7-1.5 1.4c-2 1.9-3.3 3-6 3.2-3.4-1.5-5.9-3.9-8.6-6.4q0.4-1.8 0.9-3.6c3.2 0.5 6 1.4 9 2.7q0.9-1 2-2 1.3-1.3 2.6-2.6 0.7-0.6 1.3-1.3c3.4-3.1 3.4-3.1 6.5-2.9z"/>
	<path class="s36" d="m424.8 167.5q0.5 1.8 0.9 3.6-1.2 1.2-2.5 2.3-1.6 1.5-3.2 3-0.8 0.8-1.6 1.5-0.8 0.7-1.6 1.5-0.7 0.6-1.5 1.3-1.5 1.5-3 3c-4.8 0-7.6-3.2-10.8-6.3q0.4-2.2 0.9-4.5c3.3 0.5 5 1 7.2 3.6 3.9-1.6 6.1-4.3 8.8-7.4 2.3-1.9 3.6-1.9 6.4-1.6z"/>
	<path class="s37" d="m373.7 169.3c4.1 0 8.3 0 12.5 0 0 3.9 0 7.8 0 11.7-4.1 0-8.3 0-12.5 0 0-3.8 0-7.7 0-11.7z"/>
	<path class="s38" d="m373.7 225.1c4.1 0 8.3 0 12.5 0 0 3.5 0 7.1 0 10.7-4.1 0-8.3 0-12.5 0 0-3.5 0-7.1 0-10.7z"/>
	<path class="s39" d="m373.7 197.2c4.1 0 8.3 0 12.5 0 0 3.6 0 7.1 0 10.8-4.1 0-8.3 0-12.5 0 0-3.6 0-7.1 0-10.8z"/>
	<path class="s40" d="m273.7 209.4q1.2 0 2.5 0 4 0.1 7.9 0.2 2.7 0 5.4 0 6.7 0.1 13.3 0.2 0 0.4 0 0.9c-12.2 0-24.3 0-36.8 0-1.9 3.7-2.1 5.4-2.2 9.4q0 1.7-0.1 3.4 0 1.8-0.1 3.6 0 1.7-0.1 3.6-0.1 4.3-0.2 8.7-0.9-0.4-1.8-0.9-0.2-6.1-0.2-12.3-0.1-1.8-0.1-3.6 0-1.6-0.1-3.4 0-1.5 0-3.1c0.4-2.7 0.4-2.7 1.7-4.9 3.5-2.2 6.8-1.9 10.9-1.8z"/>
	<path class="s41" d="m444.6 137c5.7-0.3 5.7-0.3 7.8 1 1.7 2.5 1.4 4.5 1.4 7.5-0.1 1.7-0.1 1.7-0.1 3.4q-0.3 6.6-1.1 13.3-0.4 0-0.9 0 0-0.8 0-1.6-0.2-3.4-0.4-6.8 0-1.1-0.1-2.3 0-1.2-0.1-2.3 0-1.1-0.1-2.1c-0.2-2-0.4-3.7-1.1-5.6-2.5-1.3-4.6-1.1-7.4-1.2q-1.7-0.1-3.4-0.1-1.8-0.1-3.6-0.1-1.8-0.1-3.6-0.1-4.5-0.2-8.9-0.3 0-0.5 0-0.9c7.1-0.3 14.2-0.6 21.6-0.9q0-0.5 0-0.9z"/>
	<path class="s42" d="m306.4 235.8c0 3.6 0 7.2 0 10.8q-2.7 0.5-5.4 0.9c0-3.5 0-7.1 0-10.8 4.5-0.9 4.5-0.9 5.4-0.9z"/>
	<path class="s43" d="m474 176q3.5-0.1 7 0c1 1 1 1 1.1 3.6q-0.1 1.2-0.1 2.4c-2 1-2 1-4 2-1.6-1.7-3.3-3.3-5-5q0.5-1.5 1-3z"/>
	<path class="s40" d="m372.1 191.6q1.2 0 2.5 0 1.3 0 2.6 0c1.4 0.1 1.4 0.1 2.9 0.1q1.4 0 2.8 0 3.5 0.1 6.9 0.1 0 0.4 0 0.9-0.8 0-1.6 0.1-3.6 0.1-7.2 0.2-1.3 0.1-2.6 0.1c-1.2 0.1-1.2 0.1-2.4 0.1q-1.1 0.1-2.3 0.1c-2 0.1-2 0.1-3.6 2.1-0.4 1.7-0.4 1.7-0.4 3.7q0 1.1-0.1 2.2 0 1.1-0.1 2.3 0 1.1-0.1 2.3-0.1 2.8-0.2 5.7-0.5 0-0.9 0-0.1-4.5-0.1-8.9-0.1-1.3-0.1-2.5c0-1.3 0-1.3 0-2.5q0-1.1 0-2.2c0.3-2.8 1.3-3.6 4-3.9z"/>
	<path class="s44" d="m264.2 290.7q0.9 0.4 1.8 0.9c-4.2 4.1-8.3 8.3-12.6 12.5q-0.9-0.4-1.8-0.9c3.9-4.6 7.9-8.7 12.6-12.5z"/>
	<path class="s45" d="m256.1 283.5q0.9 0.4 1.8 0.9c-4.4 4.4-8.9 8.9-13.5 13.4 0-4.1 2.6-6.1 5.4-8.9q3.1-2.8 6.3-5.4z"/>
	<path class="s46" d="m248 275.4q0.9 0.4 1.8 0.9c-4.7 4.7-9.5 9.5-14.3 14.4 0-4.5 3.3-6.9 6.2-9.9 2.1-1.9 4.2-3.7 6.3-5.4z"/>
	<path class="s47" d="m438.3 205.3q1.7 0.9 3.6 1.8 0 1.3 0 2.7c-2.1 0.6-4.2 1.2-6.3 1.8 1.7-5.3 1.7-5.3 2.7-6.3z"/>
	<path class="s48" d="m447 152q0.5 0 1 0c0 5.9 0 11.9 0 18q1.5 0.5 3 1c-2 1-2 1-4 2 0-6.9 0-13.9 0-21z"/>
	<path class="s49" d="m153.8 210.7q0.9 0 1.8 0-0.4 0.6-0.9 1.3c-1.3 3.2-1.3 6.3-1.5 9.7q0 1-0.1 2-0.1 2.5-0.2 4.9-0.4 0-0.9 0-0.1-3.9-0.1-7.9 0-1.2-0.1-2.3 0-1.1 0-2.2c0-1 0-1 0-2 0.2-1.7 0.2-1.7 2-3.5z"/>
	<path class="s50" d="m153.8 317.6q0.9 0 1.8 0c-0.4 0.7-0.4 0.7-0.9 1.4-1.2 3-1.3 5.9-1.5 9.2q0 0.9-0.1 1.9-0.1 2.3-0.2 4.6-0.4 0-0.9 0-0.1-3.8-0.1-7.5 0-1.1-0.1-2.2c0-1.9 0.1-3.7 0.2-5.6q0.9-0.9 1.8-1.8z"/>
	<path class="s51" d="m43 126q1 0.5 2 1c-2.6 2.6-5.3 5.3-8 8q-0.5-1-1-2c2.2-2.9 3.9-5 7-7z"/>
	<path class="s52" d="m397.9 248.4q1.8 0 3.6 0 0 2.2 0 4.5-1.8 0-3.6 0 0-2.2 0-4.5z"/>
	<path class="s53" d="m421.2 222.4q0.9 0 1.8 0c0.3 2.4 0.3 2.4 0 5.4-2.2 2.5-2.2 2.5-4.5 4.4q0-1.7 0-3.6 1.4-0.8 2.7-1.7c0.3-2.4 0.3-2.4 0-4.5z"/>
	<path class="s54" d="m473 172c2.5 0.8 4.7 1.8 7 3q0 0.5 0 1c-2.3 0.3-4.6 0.7-7 1q0-2.5 0-5z"/>
</svg>